#!OML:ASF I:\golf\golf\golf 2\Subject 1\2002-09-07\Subject1.ASF
:FULLY-SPECIFIED
:DEGREES
394
root -10.4749 18.0362 4.45456 -154.611 75.1813 -173.366
lowerback 2.99393 1.55036 0.0655565
upperback 4.67473 2.17898 4.74593
thorax 2.96088 1.09512 4.87153
lowerneck -13.3648 5.33382 4.77308
upperneck 34.217 12.2376 -10.3188
head 15.2035 5.06887 -2.89499
rclavicle -2.62396e-014 -4.6118e-014
rhumerus -15.6806 24.331 -98.0861
rradius 48.402
rwrist -50.7708
rhand -32.6318 -9.91317
rfingers 7.12502
rthumb -5.85878 -39.8122
lclavicle -2.62396e-014 -4.6118e-014
lhumerus -8.63334 -45.552 105.741
lradius 42.7048
lwrist 49.0851
lhand -6.46753 63.7002
lfingers 7.12502
lthumb -160.617 87.2458
rfemur -25.712 -8.82489 15.731
rtibia 26.4889
rfoot -10.8909 -18.567
rtoes -2.11308
lfemur -33.0144 0.557631 -11.8507
ltibia 20.404
lfoot -5.67788 -17.2439
ltoes -6.40551
395
root -10.473 18.0348 4.45777 -154.481 75.2379 -173.252
lowerback 2.96443 1.54686 -0.0270396
upperback 4.6678 2.1722 4.76876
thorax 2.96701 1.08821 4.94895
lowerneck -13.4125 5.37171 4.71956
upperneck 34.2377 12.3129 -10.3141
head 15.2295 5.09167 -2.86878
rclavicle -5.00937e-014 3.18055e-015
rhumerus -15.7076 24.442 -98.0968
rradius 48.4452
rwrist -50.9034
rhand -33.0318 -10.067
rfingers 7.12502
rthumb -6.2449 -39.955
lclavicle -5.00937e-014 3.18055e-015
lhumerus -8.6002 -45.4813 105.711
lradius 42.6958
lwrist 49.1025
lhand -6.29764 63.5018
lfingers 7.12502
lthumb -160.454 87.4607
rfemur -25.7771 -8.87531 15.7726
rtibia 26.5433
rfoot -10.9324 -18.468
rtoes -1.91918
lfemur -33.0447 0.647709 -11.8493
ltibia 20.4568
lfoot -5.75054 -17.2603
ltoes -6.66138
396
root -10.4717 18.033 4.46076 -154.273 75.2405 -173.07
lowerback 2.93304 1.54272 -0.0281368
upperback 4.63807 2.16555 4.77302
thorax 2.95409 1.08471 4.95424
lowerneck -13.4409 5.41184 4.72135
upperneck 34.302 12.3794 -10.2857
head 15.2725 5.12151 -2.84536
rclavicle -4.6118e-014 3.18055e-015
rhumerus -15.7362 24.4431 -98.1262
rradius 48.4684
rwrist -50.9753
rhand -33.0851 -9.88812
rfingers 7.12502
rthumb -6.29641 -39.7745
lclavicle -4.6118e-014 3.18055e-015
lhumerus -8.61505 -45.472 105.718
lradius 42.6531
lwrist 49.0905
lhand -6.18415 63.3704
lfingers 7.12502
lthumb -160.345 87.6033
rfemur -25.8361 -8.99461 15.87
rtibia 26.5534
rfoot -10.86 -18.3722
rtoes -2.26397
lfemur -33.1126 0.767515 -11.8328
ltibia 20.5192
lfoot -5.8326 -17.2947
ltoes -7.09022
397
root -10.4697 18.0324 4.46243 -154.19 75.2141 -172.983
lowerback 2.90092 1.54648 0.00332488
upperback 4.63568 2.16957 4.75231
thorax 2.97102 1.08749 4.91568
lowerneck -13.3967 5.4473 4.81445
upperneck 34.239 12.4165 -10.346
head 15.2487 5.14422 -2.88012
rclavicle 2.38542e-015 3.49861e-014
rhumerus -15.6766 24.3824 -98.1209
rradius 48.4209
rwrist -50.9931
rhand -33.0147 -9.68898
rfingers 7.12502
rthumb -6.2284 -39.5774
lclavicle 2.38542e-015 3.49861e-014
lhumerus -8.62374 -45.5475 105.705
lradius 42.6394
lwrist 49.0332
lhand -6.13133 63.3301
lfingers 7.12502
lthumb -160.294 87.6488
rfemur -25.8242 -9.0895 15.9328
rtibia 26.5366
rfoot -10.7897 -18.3147
rtoes -2.76483
lfemur -33.1335 0.789231 -11.8008
ltibia 20.5735
lfoot -5.87963 -17.2962
ltoes -6.99043
398
root -10.4655 18.0344 4.46177 -154.144 75.2418 -172.896
lowerback 2.88918 1.57342 -0.0111618
upperback 4.64738 2.20479 4.74411
thorax 2.98659 1.10445 4.9158
lowerneck -13.292 5.46793 4.91667
upperneck 34.1161 12.4439 -10.4717
head 15.1882 5.1606 -2.94607
rclavicle -6.36111e-015 -1.59028e-015
rhumerus -15.6354 24.3993 -98.0873
rradius 48.4223
rwrist -51.0664
rhand -33.156 -9.75605
rfingers 7.12502
rthumb -6.36485 -39.6404
lclavicle -6.36111e-015 -1.59028e-015
lhumerus -8.63108 -45.5708 105.73
lradius 42.6422
lwrist 48.9994
lhand -6.16417 63.3638
lfingers 7.12502
lthumb -160.325 87.6118
rfemur -25.7502 -9.15818 15.9495
rtibia 26.4982
rfoot -10.7943 -18.1918
rtoes -2.67175
lfemur -33.0726 0.712623 -11.7431
ltibia 20.6178
lfoot -5.91326 -17.2566
ltoes -6.56646
399
root -10.4615 18.0361 4.46139 -154.103 75.2803 -172.82
lowerback 2.88431 1.60802 -0.00411824
upperback 4.64738 2.25018 4.71091
thorax 2.98681 1.12741 4.87668
lowerneck -13.1918 5.4792 4.98254
upperneck 34.0402 12.4557 -10.5349
head 15.1405 5.1728 -2.98307
rclavicle -4.05521e-014 -4.45278e-014
rhumerus -15.6886 24.4288 -98.0967
rradius 48.5234
rwrist -51.162
rhand -33.3696 -9.84166
rfingers 7.12502
rthumb -6.57102 -39.7197
lclavicle -4.05521e-014 -4.45278e-014
lhumerus -8.64704 -45.6191 105.752
lradius 42.6303
lwrist 49.0829
lhand -6.38602 63.4832
lfingers 7.12502
lthumb -160.539 87.4707
rfemur -25.6882 -9.17712 15.9545
rtibia 26.4626
rfoot -10.7814 -18.1364
rtoes -2.52021
lfemur -33.0229 0.661042 -11.7033
ltibia 20.6443
lfoot -5.83222 -17.2243
ltoes -6.03807
400
root -10.4592 18.0348 4.46153 -154.21 75.2963 -172.915
lowerback 2.8646 1.61937 0.00483861
upperback 4.6512 2.26351 4.64803
thorax 3.00318 1.13416 4.8063
lowerneck -13.11 5.49725 5.00568
upperneck 33.9408 12.4577 -10.5428
head 15.0762 5.17988 -2.9902
rclavicle 1.27222e-014 5.24792e-014
rhumerus -15.7122 24.4294 -98.1459
rradius 48.5738
rwrist -51.2055
rhand -33.482 -9.84035
rfingers 7.12502
rthumb -6.6795 -39.715
lclavicle 1.27222e-014 5.24792e-014
lhumerus -8.63755 -45.6548 105.714
lradius 42.5997
lwrist 49.1094
lhand -6.55532 63.5763
lfingers 7.12502
lthumb -160.702 87.3613
rfemur -25.662 -9.18739 15.921
rtibia 26.4654
rfoot -10.7827 -18.1344
rtoes -2.67368
lfemur -33.0014 0.657612 -11.7409
ltibia 20.6463
lfoot -5.82067 -17.1904
ltoes -6.08523
401
root -10.4598 18.0313 4.46413 -154.286 75.2924 -172.998
lowerback 2.88647 1.61397 -0.0340358
upperback 4.62925 2.25579 4.61974
thorax 2.96825 1.12938 4.79706
lowerneck -13.0538 5.52352 5.02633
upperneck 33.8722 12.4872 -10.568
head 15.0377 5.195 -2.99903
rclavicle -4.29375e-014 -6.67916e-014
rhumerus -15.7184 24.4262 -98.1938
rradius 48.5646
rwrist -51.2697
rhand -33.5058 -9.81589
rfingers 7.12502
rthumb -6.7025 -39.6898
lclavicle -4.29375e-014 -6.67916e-014
lhumerus -8.65015 -45.603 105.691
lradius 42.6045
lwrist 49.0684
lhand -6.72221 63.7411
lfingers 7.12502
lthumb -160.862 87.1805
rfemur -25.6899 -9.16285 15.8977
rtibia 26.5034
rfoot -10.8356 -18.1385
rtoes -2.7075
lfemur -33.0195 0.659005 -11.7644
ltibia 20.6379
lfoot -5.81564 -17.1952
ltoes -6.45512
402
root -10.4636 18.0284 4.46993 -154.239 75.2651 -172.955
lowerback 2.97835 1.60927 -0.127865
upperback 4.5878 2.25188 4.66467
thorax 2.869 1.12563 4.89253
lowerneck -13.0673 5.53734 4.9548
upperneck 33.9183 12.54 -10.5569
head 15.0632 5.20995 -2.97254
rclavicle -6.36111e-015 2.8625e-014
rhumerus -15.769 24.4657 -98.1582
rradius 48.6045
rwrist -51.3807
rhand -33.4448 -9.75056
rfingers 7.12502
rthumb -6.6436 -39.6263
lclavicle -6.36111e-015 2.8625e-014
lhumerus -8.66204 -45.5518 105.746
lradius 42.6306
lwrist 49.1035
lhand -6.92468 63.8198
lfingers 7.12502
lthumb -161.057 87.0827
rfemur -25.741 -9.05424 15.9188
rtibia 26.5573
rfoot -10.9152 -18.2131
rtoes -2.33173
lfemur -33.0726 0.729874 -11.7525
ltibia 20.6396
lfoot -5.79529 -17.2797
ltoes -6.7246
